<svg width="455" height="718" viewBox="0 0 455 718" fill="none" xmlns="http://www.w3.org/2000/svg">
<g opacity="0.8">
<path fill-rule="evenodd" clip-rule="evenodd" d="M147.702 447.864L147.702 569.296L200.729 510.672L147.702 447.864Z" fill="#D76927"/>
<path fill-rule="evenodd" clip-rule="evenodd" d="M203.901 316.052L75.8942 200.291V431.814L203.901 316.052Z" fill="#F48022"/>
<path fill-rule="evenodd" clip-rule="evenodd" d="M75.8942 316.052V431.814L203.901 316.052H75.8942Z" fill="#D76927"/>
<path fill-rule="evenodd" clip-rule="evenodd" d="M75.894 283.66L7.89573e-06 354.615V215.022L75.894 283.66Z" fill="#3A2C66"/>
<path fill-rule="evenodd" clip-rule="evenodd" d="M200.729 648.288L147.702 717.706L147.702 648.288L200.729 648.288Z" fill="#CBCBCA"/>
<path fill-rule="evenodd" clip-rule="evenodd" d="M338.676 342.322L239.719 431.814V252.83L338.676 342.322Z" fill="#98BD81"/>
<path fill-rule="evenodd" clip-rule="evenodd" d="M338.676 342.322L239.719 431.814V342.322H338.676Z" fill="#73985E"/>
<path fill-rule="evenodd" clip-rule="evenodd" d="M105.944 0H3.35638e-05V95.8218L105.944 0Z" fill="#98BD81"/>
<path fill-rule="evenodd" clip-rule="evenodd" d="M27.9649 0H0.000147542V95.8218L66.8083 35.392L27.9649 0Z" fill="#73985E"/>
<path fill-rule="evenodd" clip-rule="evenodd" d="M133.092 95.8213H251.854L133.092 203.217V95.8213Z" fill="#F48022"/>
<path fill-rule="evenodd" clip-rule="evenodd" d="M191.01 150.836L133.092 203.217V95.8213L191.01 150.836Z" fill="#D76927"/>
<path fill-rule="evenodd" clip-rule="evenodd" d="M81.9553 508.561L39.5752 546.892V470.23L81.9553 508.561Z" fill="#CBCBCA"/>
<path fill-rule="evenodd" clip-rule="evenodd" d="M39.5752 508.561V470.23L81.9553 508.561H39.5752Z" fill="white"/>
<path fill-rule="evenodd" clip-rule="evenodd" d="M147.532 431.814L124.994 452.193V411.435L147.532 431.814Z" fill="white"/>
<path fill-rule="evenodd" clip-rule="evenodd" d="M358.006 286.6L335.48 306.979V266.221L358.006 286.6Z" fill="#F48022"/>
<path fill-rule="evenodd" clip-rule="evenodd" d="M358.006 286.6L335.48 306.979V286.6H358.006Z" fill="#D76927"/>
<path fill-rule="evenodd" clip-rule="evenodd" d="M204.388 55.7954L171.801 85.2725V26.3184L204.388 55.7954Z" fill="#586D9D"/>
<path fill-rule="evenodd" clip-rule="evenodd" d="M204.388 55.7954L171.801 85.2725V55.7954H204.388Z" fill="#385185"/>
<path fill-rule="evenodd" clip-rule="evenodd" d="M454.547 472.877L409.142 513.94V431.814L454.547 472.877Z" fill="#586D9D"/>
<path fill-rule="evenodd" clip-rule="evenodd" d="M454.547 472.876L409.142 513.94V472.876H454.547Z" fill="#385185"/>
<path fill-rule="evenodd" clip-rule="evenodd" d="M98.4319 284.819L75.8942 305.198V264.44L98.4319 284.819Z" fill="white"/>
<path d="M61.8958 162.458L205.276 290.608L203.87 292.181L60.4898 164.031L61.8958 162.458Z" fill="#3A2C66"/>
<path d="M299 286.363L378.283 357.224L376.877 358.797L297.594 287.936L299 286.363Z" fill="#3A2C66"/>
<path d="M221.694 479.271L270.342 522.752L268.936 524.325L220.287 480.844L221.694 479.271Z" fill="#3A2C66"/>
<path d="M226.435 498.178L249.777 519.041L248.371 520.614L225.029 499.752L226.435 498.178Z" fill="#3A2C66"/>
<path d="M59.361 139.535L108.009 183.016L106.603 184.589L57.955 141.109L59.361 139.535Z" fill="#3A2C66"/>
</g>
</svg>
