<?xml version="1.0" encoding="utf-8"?>
<!-- Generator: Adobe Illustrator 25.2.1, SVG Export Plug-In . SVG Version: 6.00 Build 0)  -->
<svg version="1.1" id="Layer_1" xmlns="http://www.w3.org/2000/svg" xmlns:xlink="http://www.w3.org/1999/xlink" x="0px" y="0px"
	 viewBox="0 0 500 500" style="enable-background:new 0 0 500 500;" xml:space="preserve">
<g>
	<rect x="240.25" y="354.19" style="fill-rule:evenodd;clip-rule:evenodd;fill:#586D9D;" width="196.56" height="145.53"/>
	<rect x="240.25" y="456.24" style="fill-rule:evenodd;clip-rule:evenodd;fill:#385185;" width="196.56" height="43.48"/>
	<polygon style="fill-rule:evenodd;clip-rule:evenodd;fill:#4A3B7E;" points="436.81,499.72 401.17,499.72 240.25,354.19 
		436.81,176.43 	"/>
	<polygon style="fill-rule:evenodd;clip-rule:evenodd;fill:#3A2C66;" points="436.81,499.72 401.17,499.72 240.25,354.19 
		436.81,354.19 	"/>
	<polygon style="fill-rule:evenodd;clip-rule:evenodd;fill:#F48022;" points="436.81,499.72 305.02,499.72 436.81,380.53 	"/>
	<polygon style="fill-rule:evenodd;clip-rule:evenodd;fill:#D76927;" points="404.59,499.72 305.02,499.72 353.09,456.24 	"/>
	<polygon style="fill-rule:evenodd;clip-rule:evenodd;fill:#F48022;" points="269.62,259.27 374.58,164.35 374.58,354.19 	"/>
	<polygon style="fill-rule:evenodd;clip-rule:evenodd;fill:#D76927;" points="374.58,259.27 374.58,354.19 269.62,259.27 	"/>
	<polygon style="fill-rule:evenodd;clip-rule:evenodd;fill:#CBCBCA;" points="374.58,164.35 436.81,109.12 436.81,176.43 
		374.58,232.71 	"/>
	<polygon style="fill-rule:evenodd;clip-rule:evenodd;fill:#3A2C66;" points="374.58,232.71 436.81,290.89 436.81,176.43 	"/>
	<polygon style="fill-rule:evenodd;clip-rule:evenodd;fill:#CBCBCA;" points="240.25,456.24 183.33,499.72 240.25,499.72 	"/>
	<polygon style="fill-rule:evenodd;clip-rule:evenodd;fill:#98BD81;" points="159.11,280.81 240.25,354.19 240.25,207.43 	"/>
	<polygon style="fill-rule:evenodd;clip-rule:evenodd;fill:#73985E;" points="159.11,280.81 240.25,354.19 240.25,280.81 	"/>
	<polygon style="fill-rule:evenodd;clip-rule:evenodd;fill:#4A3B7E;" points="436.81,78.69 327.68,78.69 240.25,0.12 436.81,0.12 	
		"/>
	<polygon style="fill-rule:evenodd;clip-rule:evenodd;fill:#3A2C66;" points="436.81,78.69 327.68,78.69 382.03,29.14 436.81,36.53 
			"/>
	<polygon style="fill-rule:evenodd;clip-rule:evenodd;fill:#98BD81;" points="349.94,0.12 436.81,0.12 436.81,78.69 	"/>
	<polygon style="fill-rule:evenodd;clip-rule:evenodd;fill:#73985E;" points="413.88,0.12 436.81,0.12 436.81,78.69 382.03,29.14 	
		"/>
	<polygon style="fill-rule:evenodd;clip-rule:evenodd;fill:#F48022;" points="327.68,78.69 230.3,78.69 327.68,166.75 	"/>
	<polygon style="fill-rule:evenodd;clip-rule:evenodd;fill:#D76927;" points="280.19,123.8 327.68,166.75 327.68,78.69 	"/>
	<path style="fill-rule:evenodd;clip-rule:evenodd;fill:#CBCBCA;" d="M240.25,354.19l-2.5,2.26H107.83v-2.26H240.25L240.25,354.19z
		 M235.43,358.55l-2.83,2.56H107.83v-2.56H235.43L235.43,358.55z M230.28,363.2l-2.83,2.56H107.83v-2.56H230.28L230.28,363.2z
		 M225.13,367.86l-2.83,2.56H107.83v-2.56H225.13L225.13,367.86z M219.99,372.52l-2.83,2.56H107.83v-2.56H219.99L219.99,372.52z
		 M214.84,377.17l-2.83,2.56H107.83v-2.56H214.84L214.84,377.17z M209.69,381.83l-2.83,2.56h-99.03v-2.56H209.69L209.69,381.83z
		 M204.54,386.49l-2.83,2.56h-93.88v-2.56H204.54L204.54,386.49z M199.39,391.14l-2.83,2.56h-88.73v-2.56H199.39L199.39,391.14z
		 M194.24,395.8l-2.83,2.56h-83.58v-2.56H194.24L194.24,395.8z M189.09,400.45l-2.83,2.56h-78.43v-2.56H189.09L189.09,400.45z
		 M183.94,405.11l-2.83,2.56h-73.28v-2.56H183.94L183.94,405.11z M178.79,409.77l-2.83,2.56h-68.13v-2.56H178.79L178.79,409.77z
		 M173.65,414.42l-2.83,2.56h-62.99v-2.56H173.65L173.65,414.42z M168.5,419.08l-2.83,2.56h-57.84v-2.56H168.5L168.5,419.08z
		 M163.35,423.74l-2.83,2.56h-52.69v-2.56H163.35L163.35,423.74z M158.2,428.39l-2.83,2.56h-47.54v-2.56H158.2L158.2,428.39z
		 M153.05,433.05l-2.83,2.56h-42.39v-2.56H153.05L153.05,433.05z M147.9,437.71l-2.83,2.56h-37.24v-2.56H147.9L147.9,437.71z
		 M142.75,442.36l-2.83,2.56h-32.09v-2.56H142.75L142.75,442.36z M137.6,447.02l-2.83,2.56h-26.94v-2.56H137.6L137.6,447.02z
		 M132.46,451.67l-2.83,2.56h-21.8v-2.56H132.46L132.46,451.67z M127.31,456.33l-2.83,2.56h-16.65v-2.56H127.31L127.31,456.33z
		 M122.16,460.99l-2.83,2.56h-11.5v-2.56H122.16L122.16,460.99z M117.01,465.64l-2.83,2.56h-6.35v-2.56H117.01L117.01,465.64z
		 M111.86,470.3l-4.03,3.64v-3.64H111.86z"/>
	<path style="fill-rule:evenodd;clip-rule:evenodd;fill:#CBCBCA;" d="M276.99,154.44l-1.31,1.18h-68.04v-1.18H276.99L276.99,154.44z
		 M274.47,156.72l-1.48,1.34h-65.34v-1.34H274.47L274.47,156.72z M271.77,159.16l-1.48,1.34h-62.65v-1.34H271.77L271.77,159.16z
		 M269.08,161.6l-1.48,1.34h-59.95v-1.34H269.08L269.08,161.6z M266.38,164.03l-1.48,1.34h-57.26v-1.34H266.38L266.38,164.03z
		 M263.68,166.47l-1.48,1.34h-54.56v-1.34H263.68L263.68,166.47z M260.99,168.91l-1.48,1.34h-51.86v-1.34H260.99L260.99,168.91z
		 M258.29,171.35l-1.48,1.34h-49.17v-1.34H258.29L258.29,171.35z M255.59,173.79l-1.48,1.34h-46.47v-1.34H255.59L255.59,173.79z
		 M252.9,176.23l-1.48,1.34h-43.77v-1.34H252.9L252.9,176.23z M250.2,178.67l-1.48,1.34h-41.08v-1.34H250.2L250.2,178.67z
		 M247.5,181.1l-1.48,1.34h-38.38v-1.34H247.5L247.5,181.1z M244.81,183.54l-1.48,1.34h-35.68v-1.34H244.81L244.81,183.54z
		 M242.11,185.98l-1.48,1.34h-32.99v-1.34H242.11L242.11,185.98z M239.41,188.42l-1.48,1.34h-30.29v-1.34H239.41L239.41,188.42z
		 M236.72,190.86l-1.48,1.34h-27.59v-1.34H236.72L236.72,190.86z M234.02,193.3l-1.48,1.34h-24.9v-1.34H234.02L234.02,193.3z
		 M231.33,195.74l-1.48,1.34h-22.2v-1.34H231.33L231.33,195.74z M228.63,198.17l-1.48,1.34h-19.5v-1.34H228.63L228.63,198.17z
		 M225.93,200.61l-1.48,1.34h-16.81v-1.34H225.93L225.93,200.61z M223.24,203.05l-1.48,1.34h-14.11v-1.34H223.24L223.24,203.05z
		 M220.54,205.49l-1.48,1.34h-11.41v-1.34H220.54L220.54,205.49z M217.84,207.93l-1.48,1.34h-8.72v-1.34H217.84L217.84,207.93z
		 M215.15,210.37l-1.48,1.34h-6.02v-1.34H215.15L215.15,210.37z M212.45,212.81l-1.48,1.34h-3.32v-1.34H212.45L212.45,212.81z
		 M209.75,215.25l-2.11,1.91v-1.91H209.75z"/>
	<polygon style="fill-rule:evenodd;clip-rule:evenodd;fill:#CBCBCA;" points="369.61,417.12 404.36,448.55 404.36,385.69 	"/>
	<polygon style="fill-rule:evenodd;clip-rule:evenodd;fill:#FFFFFF;" points="404.36,417.12 404.36,385.69 369.61,417.12 	"/>
	<polygon style="fill-rule:evenodd;clip-rule:evenodd;fill:#FFFFFF;" points="315.84,354.19 334.32,370.9 334.32,337.48 	"/>
	<polygon style="fill-rule:evenodd;clip-rule:evenodd;fill:#F48022;" points="143.26,235.12 161.73,251.83 161.73,218.41 	"/>
	<polygon style="fill-rule:evenodd;clip-rule:evenodd;fill:#D76927;" points="143.26,235.12 161.73,251.83 161.73,235.12 	"/>
	<polygon style="fill-rule:evenodd;clip-rule:evenodd;fill:#586D9D;" points="269.22,45.87 295.94,70.04 295.94,21.7 	"/>
	<polygon style="fill-rule:evenodd;clip-rule:evenodd;fill:#385185;" points="269.22,45.87 295.94,70.04 295.94,45.87 	"/>
	<polygon style="fill-rule:evenodd;clip-rule:evenodd;fill:#586D9D;" points="64.1,387.86 101.33,421.53 101.33,354.19 	"/>
	<polygon style="fill-rule:evenodd;clip-rule:evenodd;fill:#385185;" points="64.1,387.86 101.33,421.53 101.33,387.86 	"/>
	<polygon style="fill-rule:evenodd;clip-rule:evenodd;fill:#FFFFFF;" points="356.1,233.66 374.58,250.37 374.58,216.95 	"/>
	
		<rect x="249.01" y="185.65" transform="matrix(0.7456 -0.6664 0.6664 0.7456 -40.8872 265.9263)" style="fill-rule:evenodd;clip-rule:evenodd;fill:#3A2C66;" width="157.68" height="1.73"/>
	
		<rect x="116.12" y="263.76" transform="matrix(0.7456 -0.6664 0.6664 0.7456 -135.715 173.7523)" style="fill-rule:evenodd;clip-rule:evenodd;fill:#3A2C66;" width="87.19" height="1.73"/>
	
		<rect x="208.91" y="410.71" transform="matrix(0.7456 -0.6664 0.6664 0.7456 -214.3196 261.748)" style="fill-rule:evenodd;clip-rule:evenodd;fill:#3A2C66;" width="53.5" height="1.73"/>
	
		<rect x="229.31" y="416.94" transform="matrix(0.7456 -0.6664 0.6664 0.7456 -216.8189 267.6546)" style="fill-rule:evenodd;clip-rule:evenodd;fill:#3A2C66;" width="25.67" height="1.73"/>
	
		<rect x="342.02" y="132.14" transform="matrix(0.7456 -0.6664 0.6664 0.7456 5.1786 279.5842)" style="fill-rule:evenodd;clip-rule:evenodd;fill:#3A2C66;" width="53.5" height="1.73"/>
</g>
</svg>
