<svg width="455" height="718" viewBox="0 0 455 718" fill="none" xmlns="http://www.w3.org/2000/svg">
<g opacity="0.8">
<path fill-rule="evenodd" clip-rule="evenodd" d="M306.847 269.843L306.847 148.41L253.819 207.035L306.847 269.843Z" fill="#D76927"/>
<path fill-rule="evenodd" clip-rule="evenodd" d="M250.648 401.654L378.655 517.416V285.892L250.648 401.654Z" fill="#F48022"/>
<path fill-rule="evenodd" clip-rule="evenodd" d="M378.655 401.654V285.892L250.648 401.654H378.655Z" fill="#D76927"/>
<path fill-rule="evenodd" clip-rule="evenodd" d="M378.655 434.046L454.549 363.091V502.684L378.655 434.046Z" fill="#3A2C66"/>
<path fill-rule="evenodd" clip-rule="evenodd" d="M253.819 69.4181L306.847 2.31789e-06L306.847 69.4181L253.819 69.4181Z" fill="#CBCBCA"/>
<path fill-rule="evenodd" clip-rule="evenodd" d="M115.873 375.384L214.83 285.892V464.876L115.873 375.384Z" fill="#98BD81"/>
<path fill-rule="evenodd" clip-rule="evenodd" d="M115.873 375.384L214.83 285.892V375.384H115.873Z" fill="#73985E"/>
<path fill-rule="evenodd" clip-rule="evenodd" d="M348.604 717.706H454.549V621.884L348.604 717.706Z" fill="#98BD81"/>
<path fill-rule="evenodd" clip-rule="evenodd" d="M426.584 717.706H454.549V621.884L387.741 682.314L426.584 717.706Z" fill="#73985E"/>
<path fill-rule="evenodd" clip-rule="evenodd" d="M321.457 621.885H202.695L321.457 514.489V621.885Z" fill="#F48022"/>
<path fill-rule="evenodd" clip-rule="evenodd" d="M263.539 566.87L321.457 514.489V621.885L263.539 566.87Z" fill="#D76927"/>
<path fill-rule="evenodd" clip-rule="evenodd" d="M372.594 209.145L414.974 170.814V247.476L372.594 209.145Z" fill="#CBCBCA"/>
<path fill-rule="evenodd" clip-rule="evenodd" d="M414.974 209.145V247.476L372.594 209.145H414.974Z" fill="white"/>
<path fill-rule="evenodd" clip-rule="evenodd" d="M307.017 285.892L329.555 265.513V306.271L307.017 285.892Z" fill="white"/>
<path fill-rule="evenodd" clip-rule="evenodd" d="M96.5432 431.106L119.069 410.727V451.485L96.5432 431.106Z" fill="#F48022"/>
<path fill-rule="evenodd" clip-rule="evenodd" d="M96.5432 431.106L119.069 410.727V431.106H96.5432Z" fill="#D76927"/>
<path fill-rule="evenodd" clip-rule="evenodd" d="M250.161 661.911L282.748 632.434V691.388L250.161 661.911Z" fill="#586D9D"/>
<path fill-rule="evenodd" clip-rule="evenodd" d="M250.161 661.911L282.748 632.434V661.911H250.161Z" fill="#385185"/>
<path fill-rule="evenodd" clip-rule="evenodd" d="M0.00183105 244.829L45.4065 203.766V285.892L0.00183105 244.829Z" fill="#586D9D"/>
<path fill-rule="evenodd" clip-rule="evenodd" d="M0.00183105 244.83L45.4065 203.767V244.83H0.00183105Z" fill="#385185"/>
<path fill-rule="evenodd" clip-rule="evenodd" d="M356.117 432.887L378.655 412.508V453.266L356.117 432.887Z" fill="white"/>
<path d="M392.653 555.248L249.273 427.098L250.679 425.525L394.059 553.675L392.653 555.248Z" fill="#3A2C66"/>
<path d="M155.549 431.343L76.2663 360.482L77.6723 358.909L156.955 429.77L155.549 431.343Z" fill="#3A2C66"/>
<path d="M232.855 238.435L184.207 194.954L185.613 193.381L234.261 236.862L232.855 238.435Z" fill="#3A2C66"/>
<path d="M228.114 219.528L204.772 198.665L206.178 197.092L229.52 217.955L228.114 219.528Z" fill="#3A2C66"/>
<path d="M395.188 578.171L346.54 534.69L347.946 533.117L396.594 576.598L395.188 578.171Z" fill="#3A2C66"/>
</g>
</svg>
